<mxfile host="65bd71144e">
    <diagram id="xaRmOzxselG4cbCUnS4W" name="Page-1">
        <mxGraphModel dx="4161" dy="2075" grid="1" gridSize="10" guides="1" tooltips="1" connect="1" arrows="1" fold="1" page="1" pageScale="1" pageWidth="1169" pageHeight="827" math="0" shadow="0">
            <root>
                <mxCell id="0"/>
                <mxCell id="1" parent="0"/>
                <mxCell id="49" value="" style="group;fontSize=16;" vertex="1" connectable="0" parent="1">
                    <mxGeometry x="-740" y="50" width="662.0886075949368" height="500" as="geometry"/>
                </mxCell>
                <mxCell id="138" value="" style="ellipse;whiteSpace=wrap;html=1;aspect=fixed;fontSize=19;fillColor=#f5f5f5;fontColor=#333333;strokeColor=#666666;" vertex="1" parent="49">
                    <mxGeometry y="-100" width="600" height="600" as="geometry"/>
                </mxCell>
                <mxCell id="18" value="NTT" style="rounded=1;whiteSpace=wrap;html=1;fontSize=16;" vertex="1" parent="49">
                    <mxGeometry x="74.05063291139241" y="165.60975609756096" width="98.73417721518987" height="59.75609756097561" as="geometry"/>
                </mxCell>
                <mxCell id="14" style="edgeStyle=none;html=1;fontSize=16;" edge="1" parent="49" source="2">
                    <mxGeometry relative="1" as="geometry">
                        <mxPoint x="419.62025316455697" y="128.0487804878049" as="targetPoint"/>
                    </mxGeometry>
                </mxCell>
                <mxCell id="2" value="Negative Wrapped&amp;nbsp;&lt;br style=&quot;font-size: 16px;&quot;&gt;convolution" style="rounded=1;whiteSpace=wrap;html=1;fontSize=16;" vertex="1" parent="49">
                    <mxGeometry x="222.15189873417725" y="85.3658536585366" width="98.73417721518987" height="85.3658536585366" as="geometry"/>
                </mxCell>
                <mxCell id="10" value="" style="endArrow=classic;html=1;entryX=0;entryY=0.25;entryDx=0;entryDy=0;exitX=1;exitY=0.5;exitDx=0;exitDy=0;fontSize=16;" edge="1" parent="49" source="11" target="2">
                    <mxGeometry width="50" height="50" relative="1" as="geometry">
                        <mxPoint x="172.7848101265823" y="106.70731707317074" as="sourcePoint"/>
                        <mxPoint x="263.29113924050637" y="153.65853658536588" as="targetPoint"/>
                    </mxGeometry>
                </mxCell>
                <mxCell id="11" value="pk0_ntt" style="text;html=1;strokeColor=none;fillColor=none;align=center;verticalAlign=middle;whiteSpace=wrap;rounded=0;fontSize=16;" vertex="1" parent="49">
                    <mxGeometry y="93.90243902439025" width="49.36708860759494" height="25.609756097560975" as="geometry"/>
                </mxCell>
                <mxCell id="13" style="edgeStyle=none;html=1;entryX=0;entryY=0.75;entryDx=0;entryDy=0;exitX=1;exitY=0.5;exitDx=0;exitDy=0;fontSize=16;" edge="1" parent="49" source="18" target="2">
                    <mxGeometry relative="1" as="geometry">
                        <Array as="points">
                            <mxPoint x="197.46835443037975" y="195.4878048780488"/>
                            <mxPoint x="197.46835443037975" y="149.390243902439"/>
                        </Array>
                    </mxGeometry>
                </mxCell>
                <mxCell id="12" value="u_ntt" style="text;html=1;strokeColor=none;fillColor=none;align=center;verticalAlign=middle;whiteSpace=wrap;rounded=0;fontSize=16;" vertex="1" parent="49">
                    <mxGeometry x="139.87341772151902" y="136.58536585365854" width="49.36708860759494" height="25.609756097560975" as="geometry"/>
                </mxCell>
                <mxCell id="15" value="Inverse&amp;nbsp;&lt;br style=&quot;font-size: 16px;&quot;&gt;NTT" style="rounded=1;whiteSpace=wrap;html=1;fontSize=16;" vertex="1" parent="49">
                    <mxGeometry x="362.0253164556962" y="85.3658536585366" width="98.73417721518987" height="85.3658536585366" as="geometry"/>
                </mxCell>
                <mxCell id="16" value="" style="endArrow=classic;html=1;exitX=1;exitY=0.5;exitDx=0;exitDy=0;entryX=0;entryY=0.75;entryDx=0;entryDy=0;fontSize=16;" edge="1" parent="49" source="15" target="21">
                    <mxGeometry width="50" height="50" relative="1" as="geometry">
                        <mxPoint x="493.6708860759494" y="230.4878048780488" as="sourcePoint"/>
                        <mxPoint x="567.7215189873418" y="128.0487804878049" as="targetPoint"/>
                    </mxGeometry>
                </mxCell>
                <mxCell id="19" value="" style="endArrow=classic;html=1;entryX=0;entryY=0.5;entryDx=0;entryDy=0;fontSize=16;" edge="1" parent="49" source="20" target="18">
                    <mxGeometry width="50" height="50" relative="1" as="geometry">
                        <mxPoint x="65.82278481012659" y="230.4878048780488" as="sourcePoint"/>
                        <mxPoint x="287.97468354430384" y="170.7317073170732" as="targetPoint"/>
                    </mxGeometry>
                </mxCell>
                <mxCell id="20" value="U" style="text;html=1;align=center;verticalAlign=middle;resizable=0;points=[];autosize=1;strokeColor=none;fillColor=none;fontSize=16;" vertex="1" parent="49">
                    <mxGeometry x="19.68354430379747" y="182.68292682926833" width="40" height="30" as="geometry"/>
                </mxCell>
                <mxCell id="37" style="edgeStyle=none;html=1;fontSize=16;" edge="1" parent="49" source="21">
                    <mxGeometry relative="1" as="geometry">
                        <mxPoint x="625.3164556962024" y="96.46341463414635" as="targetPoint"/>
                    </mxGeometry>
                </mxCell>
                <mxCell id="21" value="Poly add" style="rounded=1;whiteSpace=wrap;html=1;fontSize=16;" vertex="1" parent="49">
                    <mxGeometry x="493.6708860759494" y="32.4390243902439" width="32.911392405063296" height="128.0487804878049" as="geometry"/>
                </mxCell>
                <mxCell id="22" value="Negative Wrapped&amp;nbsp;&lt;br style=&quot;font-size: 16px;&quot;&gt;convolution" style="rounded=1;whiteSpace=wrap;html=1;fontSize=16;" vertex="1" parent="49">
                    <mxGeometry x="222.15189873417725" y="230.4878048780488" width="98.73417721518987" height="85.3658536585366" as="geometry"/>
                </mxCell>
                <mxCell id="23" style="edgeStyle=none;html=1;exitX=1;exitY=0.5;exitDx=0;exitDy=0;entryX=0;entryY=0.25;entryDx=0;entryDy=0;fontSize=16;" edge="1" parent="49" source="18" target="22">
                    <mxGeometry relative="1" as="geometry">
                        <Array as="points">
                            <mxPoint x="197.46835443037975" y="196.34146341463415"/>
                            <mxPoint x="197.46835443037975" y="251.82926829268294"/>
                        </Array>
                    </mxGeometry>
                </mxCell>
                <mxCell id="25" value="" style="endArrow=classic;html=1;entryX=0;entryY=0.25;entryDx=0;entryDy=0;exitX=1;exitY=0.5;exitDx=0;exitDy=0;fontSize=16;" edge="1" parent="49" source="26">
                    <mxGeometry width="50" height="50" relative="1" as="geometry">
                        <mxPoint x="172.7848101265823" y="285.9756097560976" as="sourcePoint"/>
                        <mxPoint x="222.15189873417725" y="285.97560975609747" as="targetPoint"/>
                    </mxGeometry>
                </mxCell>
                <mxCell id="26" value="pk1_ntt" style="text;html=1;strokeColor=none;fillColor=none;align=center;verticalAlign=middle;whiteSpace=wrap;rounded=0;fontSize=16;" vertex="1" parent="49">
                    <mxGeometry y="273.1707317073171" width="49.36708860759494" height="25.609756097560975" as="geometry"/>
                </mxCell>
                <mxCell id="27" value="Inverse&amp;nbsp;&lt;br style=&quot;font-size: 16px;&quot;&gt;NTT" style="rounded=1;whiteSpace=wrap;html=1;fontSize=16;" vertex="1" parent="49">
                    <mxGeometry x="362.0253164556962" y="230.4878048780488" width="98.73417721518987" height="85.3658536585366" as="geometry"/>
                </mxCell>
                <mxCell id="28" style="edgeStyle=none;html=1;exitX=1;exitY=0.5;exitDx=0;exitDy=0;entryX=0;entryY=0.5;entryDx=0;entryDy=0;fontSize=16;" edge="1" parent="49" source="22" target="27">
                    <mxGeometry relative="1" as="geometry"/>
                </mxCell>
                <mxCell id="38" style="edgeStyle=none;html=1;fontSize=16;" edge="1" parent="49" source="29">
                    <mxGeometry relative="1" as="geometry">
                        <mxPoint x="625.3164556962024" y="298.780487804878" as="targetPoint"/>
                    </mxGeometry>
                </mxCell>
                <mxCell id="29" value="Poly add" style="rounded=1;whiteSpace=wrap;html=1;fontSize=16;" vertex="1" parent="49">
                    <mxGeometry x="493.67" y="244.56" width="32.91" height="112.44" as="geometry"/>
                </mxCell>
                <mxCell id="31" style="edgeStyle=none;html=1;exitX=1;exitY=0.5;exitDx=0;exitDy=0;entryX=0;entryY=0.25;entryDx=0;entryDy=0;fontSize=16;" edge="1" parent="49" source="27" target="29">
                    <mxGeometry relative="1" as="geometry"/>
                </mxCell>
                <mxCell id="32" value="" style="endArrow=classic;html=1;entryX=-0.061;entryY=0.182;entryDx=0;entryDy=0;entryPerimeter=0;startArrow=none;fontSize=16;" edge="1" parent="49" source="39" target="21">
                    <mxGeometry width="50" height="50" relative="1" as="geometry">
                        <mxPoint x="49.36708860759494" y="55.487804878048784" as="sourcePoint"/>
                        <mxPoint x="287.97468354430384" y="179.26829268292684" as="targetPoint"/>
                    </mxGeometry>
                </mxCell>
                <mxCell id="33" value="m" style="text;html=1;strokeColor=none;fillColor=none;align=center;verticalAlign=middle;whiteSpace=wrap;rounded=0;fontSize=16;" vertex="1" parent="49">
                    <mxGeometry y="42.6829268292683" width="49.36708860759494" height="25.609756097560975" as="geometry"/>
                </mxCell>
                <mxCell id="36" value="" style="endArrow=none;html=1;entryX=0;entryY=0.5;entryDx=0;entryDy=0;fontSize=16;" edge="1" parent="49" target="34">
                    <mxGeometry width="50" height="50" relative="1" as="geometry">
                        <mxPoint x="49.36708860759494" y="55.487804878048685" as="sourcePoint"/>
                        <mxPoint x="491.66329113924036" y="55.74390243902435" as="targetPoint"/>
                    </mxGeometry>
                </mxCell>
                <mxCell id="34" value="scale by delta" style="rounded=1;whiteSpace=wrap;html=1;fontSize=16;" vertex="1" parent="49">
                    <mxGeometry x="123.41772151898735" y="29.878048780487806" width="98.73417721518987" height="51.21951219512195" as="geometry"/>
                </mxCell>
                <mxCell id="40" value="" style="endArrow=none;html=1;entryX=0;entryY=0.5;entryDx=0;entryDy=0;startArrow=none;fontSize=16;" edge="1" parent="49" source="34" target="39">
                    <mxGeometry width="50" height="50" relative="1" as="geometry">
                        <mxPoint x="222.15189873417725" y="55.527452554946635" as="sourcePoint"/>
                        <mxPoint x="491.66329113924036" y="55.74390243902435" as="targetPoint"/>
                    </mxGeometry>
                </mxCell>
                <mxCell id="39" value="poly add" style="rounded=1;whiteSpace=wrap;html=1;fontSize=16;" vertex="1" parent="49">
                    <mxGeometry x="279.74683544303804" y="29.878048780487806" width="98.73417721518987" height="51.21951219512195" as="geometry"/>
                </mxCell>
                <mxCell id="41" value="" style="endArrow=classic;html=1;entryX=0.5;entryY=0;entryDx=0;entryDy=0;fontSize=16;" edge="1" parent="49" target="39">
                    <mxGeometry width="50" height="50" relative="1" as="geometry">
                        <mxPoint x="49.36708860759494" y="8.536585365853659" as="sourcePoint"/>
                        <mxPoint x="287.97468354430384" y="179.26829268292684" as="targetPoint"/>
                        <Array as="points">
                            <mxPoint x="329.11392405063293" y="8.536585365853659"/>
                        </Array>
                    </mxGeometry>
                </mxCell>
                <mxCell id="42" value="e1" style="text;html=1;strokeColor=none;fillColor=none;align=center;verticalAlign=middle;whiteSpace=wrap;rounded=0;fontSize=16;" vertex="1" parent="49">
                    <mxGeometry width="49.36708860759494" height="25.609756097560975" as="geometry"/>
                </mxCell>
                <mxCell id="44" style="edgeStyle=none;html=1;entryX=0;entryY=0.75;entryDx=0;entryDy=0;fontSize=16;" edge="1" parent="49" source="43" target="29">
                    <mxGeometry relative="1" as="geometry"/>
                </mxCell>
                <mxCell id="43" value="e2" style="text;html=1;strokeColor=none;fillColor=none;align=center;verticalAlign=middle;whiteSpace=wrap;rounded=0;fontSize=16;" vertex="1" parent="49">
                    <mxGeometry y="315.8536585365854" width="49.36708860759494" height="25.609756097560975" as="geometry"/>
                </mxCell>
                <mxCell id="47" value="C1" style="text;html=1;align=center;verticalAlign=middle;resizable=0;points=[];autosize=1;strokeColor=none;fillColor=none;fontSize=16;" vertex="1" parent="49">
                    <mxGeometry x="617.0886075949368" y="81.09756097560977" width="40" height="30" as="geometry"/>
                </mxCell>
                <mxCell id="48" value="C0" style="text;html=1;align=center;verticalAlign=middle;resizable=0;points=[];autosize=1;strokeColor=none;fillColor=none;fontSize=16;" vertex="1" parent="49">
                    <mxGeometry x="617.0907594936709" y="285.8556097560976" width="40" height="30" as="geometry"/>
                </mxCell>
                <mxCell id="60" value="" style="group" vertex="1" connectable="0" parent="1">
                    <mxGeometry x="-840" y="460" width="280" height="348.4104878048781" as="geometry"/>
                </mxCell>
                <mxCell id="56" style="edgeStyle=none;html=1;fontSize=16;" edge="1" parent="60" source="51">
                    <mxGeometry relative="1" as="geometry">
                        <mxPoint x="280" y="20.207253886010363" as="targetPoint"/>
                    </mxGeometry>
                </mxCell>
                <mxCell id="51" value="Chunk0" style="rounded=0;whiteSpace=wrap;html=1;fontSize=16;" vertex="1" parent="60">
                    <mxGeometry width="120" height="40.41450777202073" as="geometry"/>
                </mxCell>
                <mxCell id="100" style="edgeStyle=none;html=1;fontSize=16;" edge="1" source="101" parent="60">
                    <mxGeometry relative="1" as="geometry">
                        <mxPoint x="280" y="102.20725388601022" as="targetPoint"/>
                    </mxGeometry>
                </mxCell>
                <mxCell id="101" value="Chunk1" style="rounded=0;whiteSpace=wrap;html=1;fontSize=16;" vertex="1" parent="60">
                    <mxGeometry y="82" width="120" height="40.41450777202073" as="geometry"/>
                </mxCell>
                <mxCell id="102" value="" style="group" vertex="1" connectable="0" parent="60">
                    <mxGeometry x="-110" y="80" width="50" height="46.41048780487807" as="geometry"/>
                </mxCell>
                <mxCell id="103" value="" style="group" vertex="1" connectable="0" parent="102">
                    <mxGeometry width="50" height="46.41048780487807" as="geometry"/>
                </mxCell>
                <mxCell id="104" value="pk1_ntt" style="text;html=1;strokeColor=none;fillColor=none;align=center;verticalAlign=middle;whiteSpace=wrap;rounded=0;fontSize=11;" vertex="1" parent="103">
                    <mxGeometry y="20.800731707317084" width="49.36708860759494" height="25.609756097560975" as="geometry"/>
                </mxCell>
                <mxCell id="105" value="pk0_ntt" style="text;html=1;strokeColor=none;fillColor=none;align=center;verticalAlign=middle;whiteSpace=wrap;rounded=0;fontSize=11;" vertex="1" parent="103">
                    <mxGeometry width="50" height="24.8" as="geometry"/>
                </mxCell>
                <mxCell id="106" style="edgeStyle=none;html=1;entryX=0;entryY=0.75;entryDx=0;entryDy=0;fontSize=16;" edge="1" parent="60" source="104" target="101">
                    <mxGeometry relative="1" as="geometry"/>
                </mxCell>
                <mxCell id="107" style="edgeStyle=none;html=1;entryX=0;entryY=0.25;entryDx=0;entryDy=0;fontSize=16;" edge="1" parent="60" source="105" target="101">
                    <mxGeometry relative="1" as="geometry"/>
                </mxCell>
                <mxCell id="114" style="edgeStyle=none;html=1;fontSize=16;" edge="1" source="115" parent="60">
                    <mxGeometry relative="1" as="geometry">
                        <mxPoint x="280" y="242.20725388601022" as="targetPoint"/>
                    </mxGeometry>
                </mxCell>
                <mxCell id="115" value="Chunk126" style="rounded=0;whiteSpace=wrap;html=1;fontSize=16;fillColor=#f5f5f5;fontColor=#333333;strokeColor=#666666;" vertex="1" parent="60">
                    <mxGeometry y="222" width="120" height="40.41450777202073" as="geometry"/>
                </mxCell>
                <mxCell id="116" style="edgeStyle=none;html=1;fontSize=16;" edge="1" source="117" parent="60">
                    <mxGeometry relative="1" as="geometry">
                        <mxPoint x="280" y="324.2072538860102" as="targetPoint"/>
                    </mxGeometry>
                </mxCell>
                <mxCell id="117" value="Chunk127" style="rounded=0;whiteSpace=wrap;html=1;fontSize=16;" vertex="1" parent="60">
                    <mxGeometry y="304" width="120" height="40.41450777202073" as="geometry"/>
                </mxCell>
                <mxCell id="118" value="" style="group" vertex="1" connectable="0" parent="60">
                    <mxGeometry x="-110" y="302" width="50" height="46.41048780487807" as="geometry"/>
                </mxCell>
                <mxCell id="119" value="" style="group" vertex="1" connectable="0" parent="118">
                    <mxGeometry width="50" height="46.41048780487807" as="geometry"/>
                </mxCell>
                <mxCell id="120" value="pk1_ntt" style="text;html=1;strokeColor=none;fillColor=none;align=center;verticalAlign=middle;whiteSpace=wrap;rounded=0;fontSize=11;" vertex="1" parent="119">
                    <mxGeometry y="20.800731707317084" width="49.36708860759494" height="25.609756097560975" as="geometry"/>
                </mxCell>
                <mxCell id="121" value="pk0_ntt" style="text;html=1;strokeColor=none;fillColor=none;align=center;verticalAlign=middle;whiteSpace=wrap;rounded=0;fontSize=11;" vertex="1" parent="119">
                    <mxGeometry width="50" height="24.8" as="geometry"/>
                </mxCell>
                <mxCell id="122" style="edgeStyle=none;html=1;entryX=0;entryY=0.75;entryDx=0;entryDy=0;fontSize=16;" edge="1" source="120" target="117" parent="60">
                    <mxGeometry relative="1" as="geometry"/>
                </mxCell>
                <mxCell id="123" style="edgeStyle=none;html=1;entryX=0;entryY=0.25;entryDx=0;entryDy=0;fontSize=16;" edge="1" source="121" target="117" parent="60">
                    <mxGeometry relative="1" as="geometry"/>
                </mxCell>
                <mxCell id="124" value="" style="group" vertex="1" connectable="0" parent="60">
                    <mxGeometry x="-110" y="220" width="50" height="46.41048780487807" as="geometry"/>
                </mxCell>
                <mxCell id="125" value="" style="group" vertex="1" connectable="0" parent="124">
                    <mxGeometry width="50" height="46.41048780487807" as="geometry"/>
                </mxCell>
                <mxCell id="126" value="pk1_ntt" style="text;html=1;strokeColor=none;fillColor=none;align=center;verticalAlign=middle;whiteSpace=wrap;rounded=0;fontSize=11;" vertex="1" parent="125">
                    <mxGeometry y="20.800731707317084" width="49.36708860759494" height="25.609756097560975" as="geometry"/>
                </mxCell>
                <mxCell id="127" value="pk0_ntt" style="text;html=1;strokeColor=none;fillColor=none;align=center;verticalAlign=middle;whiteSpace=wrap;rounded=0;fontSize=11;" vertex="1" parent="125">
                    <mxGeometry width="50" height="24.8" as="geometry"/>
                </mxCell>
                <mxCell id="128" style="edgeStyle=none;html=1;entryX=0;entryY=0.75;entryDx=0;entryDy=0;fontSize=16;" edge="1" parent="60" source="126" target="115">
                    <mxGeometry relative="1" as="geometry"/>
                </mxCell>
                <mxCell id="129" style="edgeStyle=none;html=1;entryX=0;entryY=0.25;entryDx=0;entryDy=0;fontSize=16;" edge="1" parent="60" source="127" target="115">
                    <mxGeometry relative="1" as="geometry"/>
                </mxCell>
                <mxCell id="80" value="" style="group" vertex="1" connectable="0" parent="1">
                    <mxGeometry x="-950" y="458" width="50" height="46.41048780487807" as="geometry"/>
                </mxCell>
                <mxCell id="75" value="" style="group" vertex="1" connectable="0" parent="80">
                    <mxGeometry width="50" height="46.41048780487807" as="geometry"/>
                </mxCell>
                <mxCell id="61" value="pk1_ntt" style="text;html=1;strokeColor=none;fillColor=none;align=center;verticalAlign=middle;whiteSpace=wrap;rounded=0;fontSize=11;" vertex="1" parent="75">
                    <mxGeometry y="20.800731707317084" width="49.36708860759494" height="25.609756097560975" as="geometry"/>
                </mxCell>
                <mxCell id="63" value="pk0_ntt" style="text;html=1;strokeColor=none;fillColor=none;align=center;verticalAlign=middle;whiteSpace=wrap;rounded=0;fontSize=11;" vertex="1" parent="75">
                    <mxGeometry width="50" height="24.8" as="geometry"/>
                </mxCell>
                <mxCell id="62" style="edgeStyle=none;html=1;entryX=0;entryY=0.75;entryDx=0;entryDy=0;fontSize=16;" edge="1" parent="80" source="61" target="51">
                    <mxGeometry relative="1" as="geometry"/>
                </mxCell>
                <mxCell id="64" style="edgeStyle=none;html=1;entryX=0;entryY=0.25;entryDx=0;entryDy=0;fontSize=16;" edge="1" parent="80" source="63" target="51">
                    <mxGeometry relative="1" as="geometry"/>
                </mxCell>
                <mxCell id="130" value="" style="endArrow=classic;html=1;fontSize=11;" edge="1" parent="1">
                    <mxGeometry width="50" height="50" relative="1" as="geometry">
                        <mxPoint x="-1030" y="560" as="sourcePoint"/>
                        <mxPoint x="-990" y="510" as="targetPoint"/>
                    </mxGeometry>
                </mxCell>
                <mxCell id="131" value="" style="endArrow=classic;html=1;fontSize=11;" edge="1" parent="1">
                    <mxGeometry width="50" height="50" relative="1" as="geometry">
                        <mxPoint x="-1040" y="584.21" as="sourcePoint"/>
                        <mxPoint x="-980" y="650" as="targetPoint"/>
                    </mxGeometry>
                </mxCell>
                <mxCell id="132" value="" style="endArrow=none;dashed=1;html=1;dashPattern=1 3;strokeWidth=2;fontSize=11;" edge="1" parent="1">
                    <mxGeometry width="50" height="50" relative="1" as="geometry">
                        <mxPoint x="-780" y="660" as="sourcePoint"/>
                        <mxPoint x="-780" y="600" as="targetPoint"/>
                    </mxGeometry>
                </mxCell>
                <mxCell id="133" value="reordered&amp;nbsp; such that &lt;br style=&quot;font-size: 19px;&quot;&gt;output is in order" style="text;html=1;align=center;verticalAlign=middle;resizable=0;points=[];autosize=1;strokeColor=none;fillColor=none;fontSize=19;" vertex="1" parent="1">
                    <mxGeometry x="-1205" y="540" width="190" height="60" as="geometry"/>
                </mxCell>
                <mxCell id="134" value="" style="endArrow=classic;html=1;fontSize=19;exitX=0;exitY=0.25;exitDx=0;exitDy=0;" edge="1" parent="1" source="115">
                    <mxGeometry width="50" height="50" relative="1" as="geometry">
                        <mxPoint x="-830" y="540" as="sourcePoint"/>
                        <mxPoint x="-740" y="220" as="targetPoint"/>
                    </mxGeometry>
                </mxCell>
                <mxCell id="137" style="edgeStyle=none;html=1;fontSize=19;" edge="1" parent="1">
                    <mxGeometry relative="1" as="geometry">
                        <mxPoint x="-460" y="550" as="targetPoint"/>
                        <mxPoint x="-720" y="680" as="sourcePoint"/>
                    </mxGeometry>
                </mxCell>
            </root>
        </mxGraphModel>
    </diagram>
</mxfile>